<?xml version="1.0"?>
<svg xmlns="http://www.w3.org/2000/svg" viewBox="0 0 50 50">
    <path d="M 23.5 3 C 21.432 3 19.957969 3.8257656 18.792969 4.7597656 C 17.873969 4.2547656 16.812 4 15.625 4 C 13.391 4 11.605547 5.0099062 10.310547 7.0039062 C 10.215547 7.0039062 10.124922 7.0049531 10.044922 7.0019531 C 8.2419219 6.9209531 6.5263125 7.5805156 5.1953125 8.8535156 C 3.8943125 10.099516 3.1107656 11.813969 3.0097656 13.667969 C 1.7867656 14.498969 1.0097656 15.964 1.0097656 17.5 C 1.0097656 18.751 1.5535313 20.066234 2.3945312 20.990234 C 1.4875312 21.889234 1.0097656 23.013 1.0097656 24.25 C 1.0097656 25.969 1.736 27.407703 3 28.220703 L 3 29 C 3 32.401 5.3382656 34.971 8.4472656 35 C 8.9282656 35.943 9.761125 36.592328 10.828125 36.861328 L 9.2285156 45.697266 L 8.9921875 47 L 14.990234 47 C 15.109234 46.469 15.220703 45.992187 15.220703 45.992188 C 15.352703 45.463187 15.560141 44.759 15.869141 44 C 16.788141 41.74 18.603 39 22 39 C 25.473 39 28.393969 36.387 28.917969 33 L 29 33 C 30.671 33 32.438859 31.947969 33.380859 30.542969 C 33.891859 30.813969 34.532 31 35.375 31 C 36.808 31 37.947531 30.296 38.644531 29 L 39.25 29 C 41.833 29 43.092125 28.017141 43.703125 26.994141 C 47.603125 26.862141 48.990234 24.383 48.990234 22.25 C 48.990234 20.936 48.632484 20.036703 48.271484 19.470703 C 48.619484 18.949703 48.990234 18.145 48.990234 16.875 C 48.990234 14.659 47.891172 13.207781 45.701172 12.550781 C 44.925172 10.082781 42.721531 8.29025 40.144531 8.03125 C 38.856531 5.62925 36.114 4 33.25 4 C 31.644 4 30.494391 4.1311563 29.150391 4.7851562 C 27.674391 3.5551563 25.898 3 23.5 3 z M 27.998047 10 L 29.998047 10 L 29.998047 12.091797 C 30.635047 12.221797 31.227953 12.475266 31.751953 12.822266 L 33.242188 11.335938 L 34.654297 12.751953 L 33.167969 14.234375 C 33.517969 14.762375 33.770437 15.359 33.898438 16 L 36 16 L 36 18 L 33.892578 18 C 33.761578 18.625 33.511922 19.206656 33.169922 19.722656 L 34.65625 21.205078 L 33.244141 22.621094 L 31.753906 21.134766 C 31.228906 21.481766 30.638953 21.736234 30.001953 21.865234 L 30.001953 23.955078 L 28.001953 23.955078 L 28.001953 21.865234 C 27.364953 21.735234 26.772047 21.481766 26.248047 21.134766 L 24.757812 22.621094 L 23.345703 21.205078 L 24.832031 19.722656 C 24.490031 19.206656 24.240375 18.626 24.109375 18 L 22 18 L 22 16 L 24.099609 16 C 24.228609 15.358 24.480078 14.761375 24.830078 14.234375 L 23.34375 12.751953 L 24.755859 11.335938 L 26.246094 12.822266 C 26.771094 12.475266 27.361047 12.220797 27.998047 12.091797 L 27.998047 10 z M 29 13.990234 A 3 2.9879999 0 0 0 26 16.978516 A 3 2.9879999 0 0 0 29 19.966797 A 3 2.9879999 0 0 0 32 16.978516 A 3 2.9879999 0 0 0 29 13.990234 z M 15.998047 18.044922 L 17.998047 18.044922 L 17.998047 20.134766 C 18.635047 20.264766 19.227953 20.518234 19.751953 20.865234 L 21.242188 19.378906 L 22.654297 20.794922 L 21.167969 22.277344 C 21.509969 22.793344 21.759625 23.374 21.890625 24 L 24 24 L 24 26 L 21.900391 26 C 21.771391 26.642 21.519922 27.238625 21.169922 27.765625 L 22.65625 29.248047 L 21.244141 30.664062 L 19.753906 29.177734 C 19.228906 29.524734 18.638953 29.779203 18.001953 29.908203 L 18.001953 32 L 16.001953 32 L 16.001953 29.908203 C 15.364953 29.778203 14.772047 29.524734 14.248047 29.177734 L 12.757812 30.664062 L 11.345703 29.248047 L 12.832031 27.765625 C 12.482031 27.237625 12.229563 26.641 12.101562 26 L 10 26 L 10 24 L 12.107422 24 C 12.238422 23.375 12.488078 22.793344 12.830078 22.277344 L 11.34375 20.794922 L 12.755859 19.378906 L 14.246094 20.865234 C 14.771094 20.518234 15.361047 20.263766 15.998047 20.134766 L 15.998047 18.044922 z M 17 22.033203 A 3 2.9879999 0 0 0 14 25.021484 A 3 2.9879999 0 0 0 17 28.009766 A 3 2.9879999 0 0 0 20 25.021484 A 3 2.9879999 0 0 0 17 22.033203 z"/>
</svg>
