<?xml version="1.0" encoding="UTF-8"?>
<svg xmlns="http://www.w3.org/2000/svg" viewBox="0 0 50 50">
    <path style="text-indent:0;text-align:start;line-height:normal;text-transform:none;block-progression:tb;-inkscape-font-specification:Sans" d="M 3 3 L 3 4 L 3 8.6875 A 1.0001 1.0001 0 0 0 3 9.28125 L 3 30 L 3 31 L 3 32 L 18 32 L 20 30 L 5 30 L 5 10.625 L 5.5625 10.90625 A 1.0001 1.0001 0 0 0 6.4375 10.90625 L 8 10.125 L 9.5625 10.90625 A 1.0001 1.0001 0 0 0 10.4375 10.90625 L 12 10.125 L 13.5625 10.90625 A 1.0001 1.0001 0 0 0 14.4375 10.90625 L 16 10.125 L 17.5625 10.90625 A 1.0001 1.0001 0 0 0 18.4375 10.90625 L 20 10.125 L 21.5625 10.90625 A 1.0001 1.0001 0 0 0 22.4375 10.90625 L 24 10.125 L 25.5625 10.90625 A 1.0001 1.0001 0 0 0 26.4375 10.90625 L 28 10.125 L 29.5625 10.90625 A 1.0001 1.0001 0 0 0 30.4375 10.90625 L 32 10.125 L 33.5625 10.90625 A 1.0001 1.0001 0 0 0 34.4375 10.90625 L 36 10.125 L 37.5625 10.90625 A 1.0001 1.0001 0 0 0 38.4375 10.90625 L 40 10.125 L 41.5625 10.90625 A 1.0001 1.0001 0 0 0 42.4375 10.90625 L 44 10.125 L 45 10.625 L 45 30 L 36 30 L 34 32 L 47 32 L 47 31 L 47 30 L 47 10.125 A 1.0063276 1.0063276 0 0 0 47 9.8125 L 47 4 L 47 3 L 46 3 L 4 3 L 3 3 z M 5 5 L 45 5 L 45 8.375 L 44.4375 8.09375 A 1.0001 1.0001 0 0 0 43.5625 8.09375 L 42 8.875 L 40.4375 8.09375 A 1.0001 1.0001 0 0 0 39.5625 8.09375 L 38 8.875 L 36.4375 8.09375 A 1.0001 1.0001 0 0 0 35.5625 8.09375 L 34 8.875 L 32.4375 8.09375 A 1.0001 1.0001 0 0 0 31.5625 8.09375 L 30 8.875 L 28.4375 8.09375 A 1.0001 1.0001 0 0 0 27.5625 8.09375 L 26 8.875 L 24.4375 8.09375 A 1.0001 1.0001 0 0 0 23.5625 8.09375 L 22 8.875 L 20.4375 8.09375 A 1.0001 1.0001 0 0 0 19.5625 8.09375 L 18 8.875 L 16.4375 8.09375 A 1.0001 1.0001 0 0 0 15.5625 8.09375 L 14 8.875 L 12.4375 8.09375 A 1.0001 1.0001 0 0 0 11.5625 8.09375 L 10 8.875 L 8.4375 8.09375 A 1.0001 1.0001 0 0 0 7.5625 8.09375 L 6 8.875 L 5 8.375 L 5 5 z M 8.71875 16 A 1.0043849 1.0043849 0 0 0 9 18 L 25 18 A 1.0001 1.0001 0 1 0 25 16 L 9 16 A 1.0001 1.0001 0 0 0 8.90625 16 A 1.001098 1.001098 0 0 0 8.8125 16 A 1.0043849 1.0043849 0 0 0 8.71875 16 z M 31.71875 16 A 1.0043849 1.0043849 0 0 0 32 18 L 41 18 A 1.0001 1.0001 0 1 0 41 16 L 32 16 A 1.0001 1.0001 0 0 0 31.90625 16 A 1.001098 1.001098 0 0 0 31.8125 16 A 1.0043849 1.0043849 0 0 0 31.71875 16 z M 8.71875 21 A 1.0043849 1.0043849 0 0 0 9 23 L 25 23 A 1.0001 1.0001 0 1 0 25 21 L 9 21 A 1.0001 1.0001 0 0 0 8.90625 21 A 1.001098 1.001098 0 0 0 8.8125 21 A 1.0043849 1.0043849 0 0 0 8.71875 21 z M 34.875 22 A 1.0001 1.0001 0 0 0 34.28125 22.28125 L 33.625 22.90625 A 1.0001 1.0001 0 0 0 32.96875 22.65625 A 1.0001 1.0001 0 0 0 32.875 22.65625 A 1.0001 1.0001 0 0 0 32.59375 22.75 L 27.90625 24.75 A 1.0001 1.0001 0 0 0 27.59375 24.96875 L 19.09375 33.5 L 19.0625 33.5 A 1.0001 1.0001 0 0 0 18.9375 33.59375 A 1.0001 1.0001 0 0 0 18.78125 33.75 A 1.0001 1.0001 0 0 0 18.6875 33.90625 L 10.84375 41.71875 A 1.0001 1.0001 0 0 0 10.8125 43.09375 C 9.7222419 44.218893 9.7314891 46.045492 10.84375 47.15625 C 11.955243 48.267743 13.781828 48.278482 14.90625 47.1875 A 1.0001 1.0001 0 0 0 16.28125 47.15625 L 17 46.4375 C 17.190644 46.564632 17.417039 46.695839 17.65625 46.8125 C 18.080241 47.019277 18.5956 47.215418 19.1875 47.21875 C 19.7794 47.22205 20.462126 46.975374 20.96875 46.46875 C 21.738196 45.699304 22.70582 44.411777 23.625 43.15625 C 24.54418 41.900723 25.484814 40.608936 25.65625 40.4375 C 25.999122 40.094628 26.90625 40.0625 26.90625 40.0625 A 1.0001 1.0001 0 1 0 27.03125 38.09375 C 27.03125 38.09375 26.918935 38.066416 26.75 38.0625 C 26.369895 38.053688 25.645782 38.100846 24.9375 38.5 L 33.03125 30.40625 A 1.0001 1.0001 0 0 0 33.25 30.09375 L 35.25 25.40625 A 1.0001 1.0001 0 0 0 35.09375 24.375 L 35.71875 23.71875 A 1.0001 1.0001 0 0 0 34.875 22 z M 32.75 24.84375 L 32.78125 24.84375 L 32.8125 24.875 A 1.016466 1.016466 0 0 0 33.125 25.21875 L 33.15625 25.25 L 31.46875 29.15625 L 23.625 37 L 21 34.375 L 28.84375 26.53125 L 32.75 24.84375 z M 19.5625 35.8125 L 22.1875 38.4375 L 16.59375 44.0625 L 16.5625 44.0625 A 1.0001 1.0001 0 0 0 15.84375 44.78125 L 15.59375 45.03125 A 1.0054782 1.0054782 0 0 0 15.5 44.96875 L 15.34375 44.84375 L 13.1875 42.71875 A 1.0001 1.0001 0 0 0 13.1875 42.6875 L 13.15625 42.625 A 1.0001 1.0001 0 0 0 13 42.375 L 19.5625 35.8125 z M 23.5625 39.84375 C 23.107781 40.429904 22.590383 41.162334 22 41.96875 C 21.08818 43.214223 20.088054 44.536946 19.5625 45.0625 C 19.421624 45.203376 19.344944 45.219636 19.1875 45.21875 C 19.030056 45.217864 18.782634 45.15385 18.53125 45.03125 C 18.494573 45.013363 18.473311 44.988179 18.4375 44.96875 L 23.5625 39.84375 z M 12.21875 44.5 L 13.5 45.78125 C 13.142302 46.107415 12.597257 46.097257 12.25 45.75 C 11.903495 45.403964 11.891962 44.858847 12.21875 44.5 z"/>
</svg>