<?xml version="1.0" encoding="windows-1252"?>
<!-- Generator: Adobe Illustrator 20.1.0, SVG Export Plug-In . SVG Version: 6.00 Build 0)  -->
<svg xmlns="http://www.w3.org/2000/svg" xmlns:xlink="http://www.w3.org/1999/xlink" version="1.1" id="&#1057;&#1083;&#1086;&#1081;_1" x="0px" y="0px" viewBox="0 0 64 64" style="enable-background:new 0 0 64 64;" xml:space="preserve">
<linearGradient id="SVGID_1__48159" gradientUnits="userSpaceOnUse" x1="29" y1="31.5" x2="29" y2="38.5" spreadMethod="reflect">
	<stop offset="0" style="stop-color:#6DC7FF"/>
	<stop offset="1" style="stop-color:#E6ABFF"/>
</linearGradient>
<path style="fill:url(#SVGID_1__48159);" d="M32,37c0,0.552-0.448,1-1,1h-4c-0.552,0-1-0.448-1-1v-4c0-0.552,0.448-1,1-1h4  c0.552,0,1,0.448,1,1V37z"/>
<linearGradient id="SVGID_2__48159" gradientUnits="userSpaceOnUse" x1="29" y1="7.1667" x2="29" y2="58.1765" spreadMethod="reflect">
	<stop offset="0" style="stop-color:#1A6DFF"/>
	<stop offset="1" style="stop-color:#C822FF"/>
</linearGradient>
<path style="fill:url(#SVGID_2__48159);" d="M48,34h-4c-1.103,0-2,0.897-2,2v12H16V22h12c1.103,0,2-0.897,2-2v-4c0-1.103-0.897-2-2-2H13  c-2.757,0-5,2.243-5,5v32c0,2.757,2.243,5,5,5h32c2.757,0,5-2.243,5-5V36C50,34.897,49.103,34,48,34z M48,51c0,1.654-1.346,3-3,3H13  c-1.654,0-3-1.346-3-3V19c0-1.654,1.346-3,3-3h15v4H16c-1.103,0-2,0.897-2,2v26c0,1.103,0.897,2,2,2h26c1.103,0,2-0.897,2-2V36h4V51  z"/>
<linearGradient id="SVGID_3__48159" gradientUnits="userSpaceOnUse" x1="46" y1="7.1667" x2="46" y2="58.1765" spreadMethod="reflect">
	<stop offset="0" style="stop-color:#1A6DFF"/>
	<stop offset="1" style="stop-color:#C822FF"/>
</linearGradient>
<path style="fill:url(#SVGID_3__48159);" d="M51,8H38c-1.103,0-2,0.897-2,2v4c0,1.103,0.897,2,2,2h10v10c0,1.103,0.897,2,2,2h4  c1.103,0,2-0.897,2-2V13C56,10.243,53.757,8,51,8z M54,26h-4V16c0-1.103-0.897-2-2-2H38v-4h13c1.654,0,3,1.346,3,3V26z"/>
<linearGradient id="SVGID_4__48159" gradientUnits="userSpaceOnUse" x1="33" y1="7.1667" x2="33" y2="58.1765" spreadMethod="reflect">
	<stop offset="0" style="stop-color:#1A6DFF"/>
	<stop offset="1" style="stop-color:#C822FF"/>
</linearGradient>
<path style="fill:url(#SVGID_4__48159);" d="M34,28H24c-1.103,0-2,0.897-2,2v10c0,1.103,0.897,2,2,2h10c1.103,0,2-0.897,2-2V30  c0-0.178-0.031-0.347-0.075-0.511L42,23.414V30h2v-8c0-1.103-0.897-2-2-2h-8v2h6.586l-6.075,6.074C34.347,28.031,34.178,28,34,28z   M34,40H24V30h10V40z"/>
</svg>