<?xml version="1.0"?>
<svg xmlns="http://www.w3.org/2000/svg" viewBox="0 0 50 50">
    <path style="line-height:normal;text-indent:0;text-align:start;text-decoration-line:none;text-decoration-style:solid;text-decoration-color:#000;text-transform:none;block-progression:tb;isolation:auto;mix-blend-mode:normal" d="M 25 2 C 12.309295 2 2 12.309295 2 25 C 2 37.690705 12.309295 48 25 48 C 37.690705 48 48 37.690705 48 25 C 48 12.309295 37.690705 2 25 2 z M 25 4 C 36.609824 4 46 13.390176 46 25 C 46 36.609824 36.609824 46 25 46 C 13.390176 46 4 36.609824 4 25 C 4 13.390176 13.390176 4 25 4 z M 20.462891 11.449219 C 20.203891 11.449219 19.942406 11.498516 19.691406 11.603516 C 16.834406 12.797516 12 16.605781 12 23.300781 C 12 28.012781 14.530953 33.644422 21.501953 34.982422 L 21.501953 40.550781 C 21.501953 41.655781 22.396953 42.550781 23.501953 42.550781 L 26.654297 42.550781 C 27.759297 42.550781 28.654297 41.655781 28.654297 40.550781 L 28.654297 34.919922 C 33.550297 33.759922 38 29.829172 38 22.951172 C 38 15.937172 33.093609 11.694531 28.349609 11.644531 L 28.240234 11.642578 C 26.475234 11.642578 24.543172 12.291672 23.201172 13.888672 L 22.105469 12.308594 C 21.723469 11.757594 21.101891 11.449219 20.462891 11.449219 z M 20.462891 13.449219 L 21.787109 15.357422 C 19.762109 16.642422 17.386719 19.172656 17.386719 23.222656 C 17.386719 26.999656 19.412 30.115281 23.5 30.738281 L 23.5 19.328125 C 23.5 15.324125 25.707234 13.642578 28.240234 13.642578 C 28.269234 13.642578 28.298125 13.643531 28.328125 13.644531 C 32.028125 13.683531 36 17.188172 36 22.951172 C 36 29.414172 31.405297 32.762469 26.654297 33.230469 L 26.654297 40.550781 L 23.501953 40.550781 L 23.501953 33.230469 C 18.828953 32.879469 14 29.998781 14 23.300781 C 14 17.849781 17.854891 14.540219 20.462891 13.449219 z M 28.289062 16.136719 C 27.316063 16.136719 26.654297 16.992203 26.654297 18.783203 L 26.654297 30.777344 C 30.354297 30.271344 32.728516 27.390234 32.728516 22.990234 C 32.728516 19.173234 30.469062 16.136719 28.289062 16.136719 z M 21.566406 18.0625 C 21.523406 18.4625 21.501953 18.885078 21.501953 19.330078 L 21.501953 27.894531 C 19.636953 26.601531 19.388672 24.335609 19.388672 23.224609 C 19.388672 20.782609 20.472406 19.1185 21.566406 18.0625 z M 28.6875 18.261719 C 29.5125 18.721719 30.730469 20.429234 30.730469 22.990234 C 30.729469 25.245234 29.994297 26.944922 28.654297 27.919922 L 28.654297 18.783203 C 28.654297 18.564203 28.6685 18.393719 28.6875 18.261719 z" font-weight="400" font-family="sans-serif" white-space="normal" overflow="visible"/>
</svg>
